HIERARCHY
ROOT Hips
{
	OFFSET -278.121490 93.318451 465.951996
	CHANNELS 6 Xposition Yposition Zposition Zrotation Yrotation Xrotation 
	JOINT LeftUpLeg
	{
		OFFSET 0.103457 1.857822 10.548516
		CHANNELS 3 Zrotation Yrotation Xrotation
		JOINT LeftLeg
		{
			OFFSET 43.500008 -0.000031 0.000015
			CHANNELS 3 Zrotation Yrotation Xrotation
			JOINT LeftFoot
			{
				OFFSET 42.372192 0.000027 -0.000009
				CHANNELS 3 Zrotation Yrotation Xrotation
				JOINT LeftToe
				{
					OFFSET 17.299999 0.000000 -0.000004
					CHANNELS 3 Zrotation Yrotation Xrotation
					End Site
					{
						OFFSET 0.000000 0.000000 0.000000
					}
				}
			}
		}
	}
	JOINT RightUpLeg
	{
		OFFSET 0.103460 1.857822 -10.548513
		CHANNELS 3 Zrotation Yrotation Xrotation
		JOINT RightLeg
		{
			OFFSET 43.500038 -0.000015 -0.000002
			CHANNELS 3 Zrotation Yrotation Xrotation
			JOINT RightFoot
			{
				OFFSET 42.372269 -0.000019 0.000014
				CHANNELS 3 Zrotation Yrotation Xrotation
				JOINT RightToe
				{
					OFFSET 17.300005 -0.000001 0.000011
					CHANNELS 3 Zrotation Yrotation Xrotation
					End Site
					{
						OFFSET 0.000000 0.000000 0.000000
					}
				}
			}
		}
	}
	JOINT Spine
	{
		OFFSET 6.901966 -2.603743 -0.000003
		CHANNELS 3 Zrotation Yrotation Xrotation
		JOINT Spine1
		{
			OFFSET 12.588103 0.000012 0.000008
			CHANNELS 3 Zrotation Yrotation Xrotation
			JOINT Spine2
			{
				OFFSET 12.343199 0.000004 0.000007
				CHANNELS 3 Zrotation Yrotation Xrotation
				JOINT Neck
				{
					OFFSET 25.832901 -0.000008 -0.000001
					CHANNELS 3 Zrotation Yrotation Xrotation
					JOINT Head
					{
						OFFSET 11.766611 0.000029 -0.000004
						CHANNELS 3 Zrotation Yrotation Xrotation
						End Site
						{
							OFFSET 0.000000 0.000000 0.000000
						}
					}
				}
				JOINT LeftShoulder
				{
					OFFSET 19.745907 -1.480370 6.000077
					CHANNELS 3 Zrotation Yrotation Xrotation
					JOINT LeftArm
					{
						OFFSET 11.284128 -0.000004 -0.000015
						CHANNELS 3 Zrotation Yrotation Xrotation
						JOINT LeftForeArm
						{
							OFFSET 33.000065 0.000010 0.000016
							CHANNELS 3 Zrotation Yrotation Xrotation
							JOINT LeftHand
							{
								OFFSET 25.200001 0.000010 0.000006
								CHANNELS 3 Zrotation Yrotation Xrotation
								End Site
								{
									OFFSET 0.000000 0.000000 0.000000
								}
							}
						}
					}
				}
				JOINT RightShoulder
				{
					OFFSET 19.746094 -1.480385 -6.000086
					CHANNELS 3 Zrotation Yrotation Xrotation
					JOINT RightArm
					{
						OFFSET 11.284142 -0.000011 -0.000013
						CHANNELS 3 Zrotation Yrotation Xrotation
						JOINT RightForeArm
						{
							OFFSET 33.000092 0.000004 0.000015
							CHANNELS 3 Zrotation Yrotation Xrotation
							JOINT RightHand
							{
								OFFSET 25.199759 0.000141 0.000412
								CHANNELS 3 Zrotation Yrotation Xrotation
								End Site
								{
									OFFSET 0.000000 0.000000 0.000000
								}
							}
						}
					}
				}
			}
		}
	}
}
MOTION
Frames: 14
Frame Time: 0.033333
136.177399 88.865387 479.200012 78.676328 -6.544355 -80.453003 -172.630600 9.064606 -172.182621 -11.860606 -4.909626 -1.428818 85.184562 1.201055 0.557755 21.454555 0.003094 -0.000001 161.265110 18.591206 178.905918 -18.525266 -0.030233 -1.787984 72.957444 3.487495 7.123691 21.454558 -0.003112 -0.000018 8.998197 -2.625664 0.050233 7.993744 -5.248498 -0.081057 7.674202 -5.248755 -0.049265 12.910647 8.914659 1.251367 -23.200271 -3.668823 3.317990 175.611991 -78.409288 2.964780 -28.072883 48.562030 21.357341 -48.162597 -20.349948 2.048013 -4.026721 -14.344063 7.992399 161.317730 69.650895 -17.937999 -13.973464 -56.668287 -34.929297 -28.521934 14.550191 -1.199116 11.570920 13.769378 -6.239849 
136.064301 89.022377 481.040314 79.060232 -6.545516 -80.347600 -173.993796 9.164397 -171.931270 -12.030459 -4.610140 -1.732704 84.070606 1.397040 0.502834 21.454550 0.003088 -0.000002 161.371934 18.347305 178.643939 -17.645672 0.463455 0.457223 74.727071 1.601357 6.661933 21.454560 -0.003112 -0.000020 8.928177 -2.659563 0.059627 7.853351 -5.317018 -0.061357 7.533766 -5.317169 -0.029154 13.173018 7.448246 1.249893 -21.375080 -4.205173 3.372176 175.587908 -78.471832 2.987764 -30.937837 47.907036 17.119936 -49.763344 -20.754252 2.127242 -4.615835 -15.060367 7.535239 160.812351 69.943890 -18.443488 -13.737425 -55.809032 -35.869234 -29.049857 14.370771 -1.197407 10.042666 9.895231 -8.380943 
136.080200 89.189934 482.855713 79.586519 -6.770361 -80.267700 -175.406020 8.997492 -171.978617 -12.673337 -4.387515 -1.875016 83.002433 1.534426 0.666185 21.454553 0.003103 0.000002 161.374052 17.706997 179.398279 -19.268435 1.114661 3.565510 75.787834 0.140839 9.658510 21.454560 -0.003110 -0.000019 8.903587 -2.647656 0.071644 7.803448 -5.294086 -0.035367 7.483861 -5.294067 -0.003295 13.548366 6.405422 1.246974 -19.932379 -5.153508 3.608654 174.532917 -78.873686 4.050625 -33.114188 47.519491 14.076700 -50.466471 -21.005875 2.167597 -4.567511 -14.928504 8.737049 159.994518 70.028707 -19.279706 -13.986544 -54.746907 -37.022658 -28.717097 14.426493 -1.194783 9.198725 7.218275 -9.324891 
136.198593 89.332451 484.646393 80.291783 -7.260421 -80.288915 -177.073884 8.492393 -172.686525 -14.309935 -4.272055 -1.641822 82.384820 1.452305 0.990081 21.454551 0.003089 -0.000002 161.061584 16.755207 -177.010609 -24.483920 0.673781 3.190271 76.373755 0.340610 9.517208 21.454560 -0.003110 -0.000017 8.952569 -2.576096 0.123044 7.898709 -5.154578 0.070107 7.579195 -5.153915 0.101333 13.691541 5.577653 1.232281 -18.789161 -6.362188 3.952818 172.693110 -79.418810 5.905348 -34.872624 46.996954 12.576047 -50.220127 -21.019940 2.160313 -3.880026 -14.842976 9.695796 158.748691 70.064135 -20.557719 -14.270285 -53.764254 -37.129171 -28.390668 14.434338 -1.189203 8.860214 5.419764 -10.960028 
136.327606 89.328087 486.365387 80.841026 -7.728990 -80.537684 -178.752225 8.082705 -173.716805 -16.085637 -4.156205 -1.325746 82.020682 1.285098 1.192333 21.454551 0.003095 0.000001 160.895297 15.713006 -173.017257 -31.381786 -0.705405 1.841793 78.411692 0.943507 8.654109 21.454558 -0.003110 -0.000018 8.989966 -2.540283 0.210875 7.969422 -5.089012 0.246638 7.649969 -5.087282 0.277446 13.572348 5.010198 1.319202 -17.684838 -7.485980 4.373228 171.044493 -79.797933 7.568061 -35.903770 46.228988 12.490014 -49.548296 -20.886549 2.129055 -3.604721 -14.282948 9.993484 157.834921 70.288302 -21.484211 -14.873116 -53.115806 -36.494029 -28.192318 14.431350 -1.185493 8.403231 3.938197 -12.426238 
136.406006 89.198479 488.070801 81.045290 -8.024619 -80.868716 179.639781 7.992295 -174.825932 -17.508109 -4.044015 -1.043556 81.569835 1.125573 1.316035 21.454551 0.003103 -0.000000 161.294685 14.949293 -170.377512 -38.334799 -1.921658 1.033380 80.885484 1.221795 8.061665 21.454557 -0.003119 -0.000019 8.969649 -2.576024 0.287513 7.925485 -5.165625 0.398400 7.605972 -5.162989 0.429677 13.606995 4.495396 1.534743 -16.903601 -8.414630 4.857463 170.698804 -79.933014 7.914560 -36.063488 45.397914 13.687782 -48.550583 -20.513271 2.071438 -3.457614 -13.079046 9.612615 157.509722 70.254991 -21.819709 -15.486573 -52.347997 -35.897965 -28.253684 14.490130 -1.190370 8.837459 2.931539 -13.672553 
136.397598 89.031067 489.774414 80.978299 -8.249477 -81.274415 178.318658 8.186801 -175.462082 -18.261242 -4.054644 -1.073928 80.848068 1.174328 1.384839 21.454553 0.003095 0.000001 162.446719 14.439006 -168.913556 -44.653441 -2.862703 0.372748 83.858071 1.532407 8.177943 21.454558 -0.003109 -0.000019 8.907403 -2.652638 0.371088 7.797217 -5.324144 0.563298 7.477649 -5.320513 0.595529 13.894125 4.038970 1.729690 -16.389389 -9.442592 5.360983 171.865741 -79.509488 6.743152 -35.464251 44.423158 15.997891 -47.289078 -20.129442 2.005539 -3.503808 -11.430464 10.102258 157.464274 70.003722 -21.879717 -15.996810 -51.558666 -35.518889 -28.308484 14.613620 -1.199273 8.960464 2.817057 -14.309469 
136.371201 88.902237 491.481995 80.879521 -8.421007 -81.653511 177.288597 8.423002 -175.513827 -18.283937 -4.148961 -1.407711 79.765674 1.410658 1.333163 21.454553 0.003091 -0.000001 164.493331 13.730099 -168.740588 -49.781117 -3.329472 0.170763 86.800011 1.404022 7.748213 21.454560 -0.003106 -0.000018 8.823256 -2.722529 0.495587 7.622913 -5.471706 0.811774 7.303268 -5.466567 0.844911 14.161265 3.651162 1.892278 -15.822804 -10.163478 5.711505 173.776419 -78.910774 4.818997 -34.723261 43.578000 19.020487 -45.569933 -19.722292 1.925309 -3.096266 -9.961816 9.912455 158.174545 69.855118 -21.158225 -16.718370 -51.085386 -35.029154 -28.336133 14.807119 -1.212158 8.792071 3.250477 -13.862391 
136.327606 88.863220 493.207703 80.957693 -8.502891 -82.171117 176.484657 8.517397 -175.197631 -17.582239 -4.256564 -2.006911 78.331020 1.805785 1.162228 21.454551 0.003088 -0.000001 167.170273 12.563592 -169.750077 -53.304200 -3.205023 0.220871 88.272791 1.058848 6.500813 21.454555 -0.003099 -0.000015 8.693220 -2.725908 0.679401 7.353532 -5.489344 1.185716 7.033932 -5.481950 1.218931 14.627007 3.174471 2.118439 -15.263294 -10.663192 6.038961 176.627422 -78.359489 1.932301 -34.266472 43.437995 22.009668 -42.695441 -18.965224 1.790776 -2.607277 -10.049926 9.003257 158.967353 69.584000 -20.357708 -17.219677 -50.658833 -34.635309 -28.474505 15.033463 -1.229169 8.569499 4.135908 -13.022662 
136.258896 88.811951 494.989990 80.951907 -8.389956 -82.796380 175.604109 8.761991 -174.865547 -16.587466 -4.253052 -2.707380 76.725263 2.256191 0.937792 21.454555 0.003098 -0.000000 170.167005 11.474398 -171.389650 -55.182273 -2.797259 -0.102345 89.065182 1.050246 5.373265 21.454560 -0.003105 -0.000016 8.525424 -2.720301 0.888336 7.007326 -5.489228 1.612378 6.687771 -5.479247 1.645602 15.101188 2.594989 2.344441 -14.690536 -11.155654 6.358490 178.615007 -77.923572 -0.082294 -33.543257 44.331117 24.365419 -39.037280 -18.238890 1.643695 -2.079076 -9.953273 8.647429 159.450889 69.497305 -19.865113 -17.677098 -50.528930 -33.986919 -28.739264 15.242921 -1.247453 8.398441 4.870771 -12.511453 
136.196198 88.714867 496.938507 80.891911 -7.909544 -83.511412 174.247729 9.041796 -174.845056 -15.590930 -4.236163 -3.301137 75.009315 2.664477 0.828437 21.454553 0.003090 -0.000001 173.201740 10.361500 -173.238131 -54.809895 -2.575991 -0.874357 90.186071 1.432240 4.757287 21.454558 -0.003107 -0.000019 8.309535 -2.690833 1.101792 6.564801 -5.439580 2.051786 6.245367 -5.426961 2.084682 15.414086 1.670209 2.602271 -14.115629 -11.370442 6.611609 -179.579689 -77.428097 -1.913047 -32.374465 45.822660 26.034226 -35.103829 -17.300755 1.486195 -0.630317 -10.138840 7.222572 159.367479 69.643600 -19.943416 -18.167519 -50.611118 -32.973312 -29.240351 15.578430 -1.278319 8.403592 4.854737 -12.696908 
136.156494 88.603493 499.075897 80.926902 -7.191925 -84.196807 172.491974 9.183999 -175.233189 -14.665220 -4.155460 -3.647934 73.171700 2.933993 0.824253 21.454555 0.003092 -0.000001 176.046432 9.053412 -174.990854 -52.266459 -2.837439 -1.234396 91.398573 1.591410 4.485867 21.454558 -0.003108 -0.000016 8.105275 -2.604351 1.276410 6.148511 -5.272526 2.415617 5.829268 -5.257714 2.447480 15.328937 0.756211 2.895855 -13.501057 -11.749680 6.956072 -177.547626 -76.858807 -3.977388 -30.732580 47.783262 26.965172 -31.193464 -16.369737 1.341214 0.646375 -10.592747 6.198314 158.778894 69.895498 -20.535278 -18.995888 -50.831156 -31.078409 -29.727200 16.002143 -1.314750 8.198185 4.217852 -13.531192 
136.145798 88.499969 501.437592 81.138583 -6.329000 -84.754219 170.497450 9.184801 -175.412795 -13.607311 -3.965154 -4.040624 71.071130 3.189765 0.661534 21.454551 0.003095 -0.000000 178.644199 7.743602 -176.695150 -46.783654 -3.173473 -1.052232 94.294252 1.117745 2.589820 21.454560 -0.003105 -0.000018 7.986126 -2.438946 1.429042 5.905770 -4.947302 2.734734 5.586791 -4.930561 2.764594 14.759144 0.037803 3.275464 -13.493241 -12.464877 7.570976 -175.947504 -76.323689 -5.604531 -28.911392 49.943105 27.391009 -27.654852 -15.340632 1.208115 2.383184 -11.270818 4.131621 158.697191 70.235607 -20.601707 -20.376362 -51.055527 -27.840035 -30.239283 16.657406 -1.366678 7.726039 2.889878 -14.787271 
136.193893 88.512878 503.971497 81.844593 -5.229139 -84.940096 168.355584 8.820504 -175.409503 -12.176378 -3.535627 -4.216943 68.587394 3.338709 0.626930 21.454551 0.003094 -0.000001 -179.491921 6.491004 -177.673656 -38.715865 -3.096387 -0.223000 98.938398 0.331721 1.286181 21.454560 -0.003121 -0.000019 7.934222 -2.133077 1.530377 5.803719 -4.339838 2.954396 5.485109 -4.321793 2.980559 13.564045 -0.507913 3.674533 -14.212382 -13.481380 8.394128 -174.657076 -75.979052 -6.919841 -27.127712 52.090253 27.594869 -24.797381 -14.253343 1.091374 3.869792 -11.594472 1.849019 159.262308 70.709021 -19.997513 -22.466160 -51.323305 -23.287931 -30.730660 17.699332 -1.443129 7.383257 1.128126 -15.212397 
